<svg width="32" height="32" viewBox="0 0 32 32" fill="none" xmlns="http://www.w3.org/2000/svg"><circle opacity=".2" cx="16" cy="16" r="16" fill="#fff"/><path d="M19.46 17.52c-2.786.015-3.237 1.755-3.387 3.226l-.069.651h-.56l-.068-.65c-.15-1.472-.615-3.212-3.306-3.226-.45-.962-.642-1.74-.642-2.617a4.246 4.246 0 0 1 4.303-4.244c2.568 0 4.276 2.037 4.276 4.258 0 .863-.082 1.64-.547 2.603ZM15.704 8C11.469 8 8 11.593 8 15.993 8 20.407 11.47 24 15.704 24c4.275 0 7.731-3.593 7.731-8.007 0-4.4-3.456-7.993-7.731-7.993Z" fill="#fff"/></svg>