<svg width="32" height="32" viewBox="0 0 32 32" fill="none" xmlns="http://www.w3.org/2000/svg"><circle opacity=".2" cx="16" cy="16" r="16" fill="#fff"/><path fill-rule="evenodd" clip-rule="evenodd" d="M18.357 11.94c-.67 0-1.213-.555-1.213-1.24 0-.685.543-1.241 1.213-1.241.669 0 1.212.556 1.212 1.24 0 .686-.543 1.24-1.212 1.24Zm0-3.94c-1.46 0-2.645 1.211-2.645 2.706 0 .59.188 1.163.537 1.633l.176.25 1.931 2.383 2.107-2.633c.35-.47.538-1.044.537-1.634C21 9.211 19.816 8 18.356 8Zm1.009 12.57v-4.54h-1.959v2.132l-1.957-2.406-5.45 6.7L11.813 24l3.637-4.47L19.087 24l1.813-1.544-1.534-1.886Z" fill="#fff"/></svg>