<svg width="73" height="73" viewBox="0 0 73 73" fill="none" xmlns="http://www.w3.org/2000/svg"><path fill-rule="evenodd" clip-rule="evenodd" d="m2.744 12.306.013-.002h.01l.01.002 18.292 5.72.267.117.218.101 12.043 7.628 7.222 4.12 7.788 3.704.466.263 21.24 14.475.01.013.005.01v.008l-.003.026-.068.151-.093.072-.17.043-18.108-2.963-12.138-4.783a.298.298 0 0 0-.082-.007c-.083.006-.13.055-.152.132l-3.185 9.493c-.506 1.09-2.364.441-1.895-.774l2.89-9.142c.155-.426.07-.642-.135-.74l-10.129-5.45-2.541-1.367-.202-.13-.183-.15L2.798 12.842l-.028-.03-.028-.037-.02-.05-.047-.271v-.013l-.001-.01v-.009l.003-.015.003-.01.004-.015.007-.019.008-.015.007-.011.01-.012.006-.007.008-.006.014-.006Z" fill="#074F6B" fill-opacity=".949"/><path d="m2.702 12.109.036-.008.053.002.037.007c6.08 1.94 12.208 3.854 18.309 5.726.175.077.342.151.515.232l12.05 7.631 7.208 4.113 7.782 3.701c.165.093.331.185.495.28l21.265 14.492.04.05.035.066.003.075-.01.071-.099.224-.168.13-.249.063c-6.058-.99-12.117-1.978-18.174-2.974L39.7 41.21l-3.185 9.496-.003.008c-.222.477-.655.68-1.092.673a1.414 1.414 0 0 1-.513-.106 1.318 1.318 0 0 1-.435-.288c-.283-.287-.418-.705-.232-1.199l2.89-9.142.004-.007c.063-.174.079-.297.06-.38a.158.158 0 0 0-.093-.11c-4.227-2.114-8.49-4.568-12.678-6.822-.077-.047-.153-.097-.23-.146l-.188-.156C17.61 27.177 8.235 19.126 2.62 12.948l-.058-.073-.037-.1c-.021-.119-.06-.254-.053-.376a.607.607 0 0 1 .034-.12l.013-.025.024-.038.014-.02.03-.03.045-.034.052-.02.017-.003ZM21 18.216l-18.102-5.66c.012.065.003.1.044.145l21.323 20.02.174.144.177.113 12.667 6.816a.541.541 0 0 1 .305.38c.035.155.017.35-.071.6l-2.89 9.142-.006.012c-.125.326-.042.598.14.781a.913.913 0 0 0 .3.199 1 1 0 0 0 .364.075.75.75 0 0 0 .716-.431l3.178-9.47a.387.387 0 0 1 .117-.194c.059-.05.13-.08.217-.086a.499.499 0 0 1 .137.011l.016.004 12.134 4.781 18.044 2.953.09-.023.008-.006-21.121-14.395-.442-.248-7.787-3.705c-6.616-3.506-12.965-7.755-19.277-11.753l-.2-.094-.255-.11Z" fill="#074F6B" fill-opacity=".949"/><path fill-rule="evenodd" clip-rule="evenodd" d="m21.635 18.296 11.918 7.548 4.79 13.84-.012.045-.633-.354-11.659-6.512-1.122-.627-.207-.142-.197-.148L2.728 12.363l-.003-.005-.002-.01-.001-.012.003-.013.005-.005.007-.005.007-.005.008-.003h.008l.007-.001h.01l18.247 5.708.61.284Z" fill="#fff" fill-opacity=".949"/><path d="m21.742 18.125 11.979 7.586c1.61 4.656 3.217 9.312 4.833 13.966l-.093.355c-20.439-11.411-13.876-7.71-35.892-27.54l-.035-.06a.83.83 0 0 1-.016-.105l.021-.106.064-.062.045-.03.053-.02.04-.006.037-.001.04.004a2799.768 2799.768 0 0 0 18.279 5.717c.21.099.422.196.633.294l.012.008Zm11.644 7.852-11.847-7.503-.587-.273-17.523-5.48 21.216 19.073.179.133.202.138L38 39.313l-4.614-13.336Z" fill="#074F6B" fill-opacity=".949"/><path fill-rule="evenodd" clip-rule="evenodd" d="m33.553 25.844 8.936-22.332.012-.02.012-.015.02-.004.022.001.013.004.807.244.019.009.015.015.01.017.009.02.003.016.001.018v.021l-.003.02-4.729 17.4-.037.14-.014.065-.008.047.006.044.018.036.029.042.038.045.06.07.78.724 7.033-19.147.01-.02.017-.016.02-.005.02.003.678.2.014.005.014.01.01.015.016.033.01.04.002.02-.002.024-5.27 21.024-.058.227-3.682 14.689-.023.081-.068-.055-4.76-13.755Z" fill="#074F6B" fill-opacity=".949"/><path d="m33.366 25.769 8.94-22.344.03-.05.07-.08.114-.026.066.005.041.01.821.248.064.03.054.054.036.055.02.053.01.053a.653.653 0 0 1 0 .083l-.003.038-4.733 17.413-.034.129-.013.06.005.008.032.038.051.059.551.511L46.42 3.241l.034-.062.078-.073.105-.028.075.009.695.205.053.02.063.044.041.057.031.067.019.071.006.06-.005.054c-2.96 11.838-5.822 24.595-9.122 36.34l-.351-.285a9052.532 9052.532 0 0 1-4.804-13.882l.028-.069Zm9.263-22.061-8.86 22.142 4.562 13.184 8.87-35.382-.452-.133-7.09 19.307c-.367-.34-.806-.686-1.12-1.066-.018-.023-.034-.047-.05-.07l-.037-.078-.016-.104c.922-5.198 3.333-12.31 4.777-17.624l-.584-.176Z" fill="#074F6B" fill-opacity=".949"/><path fill-rule="evenodd" clip-rule="evenodd" d="m33.553 25.844 8.905-22.32.006-.01.006-.013.007-.009.008-.007.01-.005.012-.004.01-.002h.012l.024.005.727.22.039.018-.002.042-4.945 17.663-.019.067-.011.058-.013.066.004.064.02.045.03.047.031.038.047.05.847.785.033.016.039.006.035.006.038-.004.024-.012.024-.021.022-.022.019-.032L46.57 3.327l.01-.022.009-.01.01-.009.009-.004.01-.002.018.003.016.006.633.206L38.11 39.01l-4.556-13.166Z" fill="#fff" fill-opacity=".949"/><path d="M33.365 25.77C35.947 19.3 39.278 9.21 42.3 3.393l.028-.036.038-.036.05-.028a.745.745 0 0 1 .08-.021h.058l.058.013.742.224.174.086-.01.197c-1.668 5.91-3.27 11.85-4.969 17.752l-.016.081v.003l.015.022.018.022.045.049.77.713c2.162-5.923 4.516-13.682 7.028-19.24l.036-.042.043-.036.061-.029.071-.012.073.013c.263.102.563.185.837.274l-9.392 36.346c-1.6-4.623-3.202-9.245-4.8-13.869l.028-.07Zm9.239-22.065L33.768 25.85l4.313 12.463 8.961-34.683-.328-.107-6.989 19.146-.042.067a1.55 1.55 0 0 1-.09.087l-.082.04-.1.012-.13-.021-.087-.042c-.294-.271-.589-.543-.882-.816a1.109 1.109 0 0 1-.137-.177l-.042-.094-.007-.124c.01-.056.021-.11.033-.166L43.082 3.85l-.478-.145Z" fill="#074F6B" fill-opacity=".949"/><path fill-rule="evenodd" clip-rule="evenodd" d="m40.818 29.992 7.736 3.68.548.307L70.247 48.39l-.004.018-.005.008-17.972-3.254-.163-.04-.136-.046-12.532-4.986-.172-.141-.1-.206-.388-1.645.184-.726 1.86-7.38Z" fill="#fff" fill-opacity=".949"/><path d="m40.905 29.809 7.748 3.686.548.308.015.01 21.253 14.484-.034.186-.1.156c-6.037-1.092-12.077-2.222-18.118-3.28l-.163-.041c-3.935-1.247-8.78-3.476-12.723-5.052l-.232-.19-.128-.264-.404-1.715 2.115-8.394.223.106Zm7.554 4.04-7.505-3.569-1.97 7.82.37 1.574.072.148.113.093 12.494 4.97.123.041.159.04 17.09 3.095-20.409-13.91-.537-.301Z" fill="#074F6B" fill-opacity=".949"/><path fill-rule="evenodd" clip-rule="evenodd" d="m38.362 39.74.414-1.642.422 1.727.042.136-.053.146-3.385 10.073c-.184.615-.974.323-.81-.178l2.95-8.982.38-1.156.04-.123Z" fill="#074F6B" fill-opacity=".949"/><path d="m38.168 39.686.61-2.426.615 2.51.06.197-.076.21-3.382 10.061c-.093.313-.307.46-.532.487a.634.634 0 0 1-.488-.148.572.572 0 0 1-.175-.638c1.123-3.417 2.244-6.836 3.368-10.253Zm.606-.749c-.75 2.971-3.59 9.89-3.59 11.13a.181.181 0 0 0 .052.203.24.24 0 0 0 .18.053c.077-.009.153-.069.192-.2 1.237-3.319 2.2-6.835 3.42-10.168-.102-.327-.173-.684-.254-1.018Z" fill="#074F6B" fill-opacity=".949"/><path fill-rule="evenodd" clip-rule="evenodd" d="m30.76 36.515 6.433 3.46c.207.1.254.38.158.7l-2.93 9.223c-.007.11.043.481.019.467-.025-.015-.126-.422-.176-.562l-3.799-11.82-.007-.15.012-.16.29-1.158Z" fill="#90B1BD" fill-opacity=".949"/><path d="m30.854 36.337 6.427 3.457c.16.078.259.218.299.397.036.158.023.346-.036.542L34.62 49.93c0 .043.008.124.014.2.012.14.022.268-.02.337-.068.116-.165.142-.281.07-.083-.05-.133-.227-.184-.409a5.055 5.055 0 0 0-.077-.256c-1.3-3.933-2.544-7.906-3.809-11.853l-.01-.191.015-.186.356-1.428.23.123Zm6.243 3.816-6.205-3.337-.222.889-.01.134.005.107 3.69 11.486 2.802-8.814a.7.7 0 0 0 .029-.339c-.013-.058-.04-.101-.082-.122l-.007-.004Z" fill="#074F6B" fill-opacity=".949"/><path fill-rule="evenodd" clip-rule="evenodd" d="m33.314 26.1 4.391 12.672-10.684-10.866-.095-.564 1.238.373-.437-.904c-.114-.163-1.122-.663-.863-.713l-.106-.437 6.556.438Z" fill="#8BADBA" fill-opacity=".949"/><path fill-rule="evenodd" clip-rule="evenodd" d="m52.114 45.139 18.208 3.333c.024.101-.12.277-.313.288l-18.048-2.98-.05-.039.01-.057.193-.545Z" fill="#074F6B" fill-opacity=".949"/><path d="m52.15 44.94 18.338 3.357.03.128a.279.279 0 0 1 .007.051c.006.1-.04.213-.121.302a.585.585 0 0 1-.383.184l-.022.002c-6.041-.995-12.083-1.99-18.123-2.993l-.185-.145.033-.193.257-.724.17.031Zm14.292 3.027-14.195-2.599-.085.24 14.28 2.359Z" fill="#074F6B" fill-opacity=".949"/><path fill-rule="evenodd" clip-rule="evenodd" d="m46.558 4.72-.017-.011-.004-.043.029-.61.03-.624.004-.032.022-.054.022-.033.024-.006.264.076.268.084.012.007.004.048-.006.046-.02.048-.292.534-.298.54-.016.025-.026.006Z" fill="#074F6B" fill-opacity=".949"/><path d="m46.438 4.884-.09-.066-.014-.146c.021-.431.027-.895.066-1.321l.043-.1.074-.112.15-.043c.206.06.407.12.611.184l.127.073.013.173-.01.09-.037.09c-.197.361-.395.721-.595 1.082l-.066.105-.2.045-.072-.054Zm.354-1.331-.02.407.193-.354-.094-.03-.08-.023Z" fill="#074F6B" fill-opacity=".949"/><path fill-rule="evenodd" clip-rule="evenodd" d="m42.469 5.34-.02-.016v-.053l.019-.807.021-.83.002-.04.028-.067.025-.04.024.002.335.096.343.103.015.007.005.064-.006.055-.023.05-.355.713-.365.728-.017.031-.031.004Z" fill="#074F6B" fill-opacity=".949"/><path d="m42.342 5.497-.093-.076c-.006-.599.01-1.275.043-1.872l.048-.115.1-.162.167.018c.238.068.473.135.71.208l.14.066.011.198-.01.106c-.013.028-.029.059-.04.087l-.354.713h-.001c-.144.286-.282.576-.436.857l-.219.026-.066-.054Zm.328-1.029-.002.087.034-.067.325-.655-.18-.054-.158-.045-.02.734Z" fill="#074F6B" fill-opacity=".949"/><path fill-rule="evenodd" clip-rule="evenodd" d="m24.7 32.114-.374.893-.126-.07L2.774 12.822l-.01-.012-.005-.009-.004-.008-.004-.01-.004-.009-.006-.012-.004-.011-.002-.008-.062-.302-.001-.011v-.008l.003-.01.009-.014.012-.012.017-.008.02.003.02.009L24.7 32.114Z" fill="#074F6B" fill-opacity=".949"/><path d="m24.886 32.192-.46 1.101-.347-.192C16.918 26.397 9.77 19.676 2.622 12.955a.45.45 0 0 1-.085-.173l-.065-.317c-.002-.026-.001-.048-.001-.075l.018-.065.04-.058.051-.051.1-.046.11.012.078.037a40798.07 40798.07 0 0 0 22.074 19.84l-.056.133Zm-.649.504.22-.527L6.151 15.714l18.086 16.982Z" fill="#074F6B" fill-opacity=".949"/><path d="M8.773 59.953c-.037 1.608-.162 2.96-.377 4.059-.213 1.099-.53 2.036-.95 2.812h3.284v-6.871H8.773Zm5.08-.581v.58h-.572c-.217 0-.364.038-.44.108-.076.071-.113.23-.113.481v6.283h1.125v3.101h-.55c-.202-.943-.51-1.596-.922-1.962-.41-.364-1.068-.546-1.972-.546H8.94c-.906 0-1.565.182-1.975.546-.413.366-.72 1.019-.923 1.962h-.544v-3.1h1.11c.427-.68.763-1.525 1.007-2.539.24-1.014.363-2.079.363-3.195 0-.486-.054-.797-.161-.934-.106-.135-.32-.204-.639-.204h-.38v-.581h7.055Zm4.764.425c-.677 0-1.175.299-1.495.897-.319.598-.479 1.535-.479 2.812 0 1.166.164 2.041.492 2.619.33.579.823.866 1.482.866.665 0 1.16-.296 1.49-.89.326-.595.492-1.497.492-2.704 0-1.229-.162-2.137-.485-2.722-.323-.587-.821-.878-1.497-.878ZM14.42 63.44c0-1.276.384-2.306 1.155-3.092.77-.785 1.786-1.177 3.043-1.177 1.26 0 2.275.39 3.049 1.172.774.782 1.162 1.8 1.162 3.054 0 .624-.085 1.164-.258 1.62a3.76 3.76 0 0 1-.835 1.284 4.142 4.142 0 0 1-1.406.976 4.39 4.39 0 0 1-1.712.33 4.38 4.38 0 0 1-1.693-.313 4.036 4.036 0 0 1-1.38-.971 3.92 3.92 0 0 1-.856-1.3c-.18-.46-.269-.987-.269-1.583Zm10.841-3.177v5.282c0 .472.095.802.283.99.189.19.518.288.986.295v.587h-3.21v-.587c.445-.022.753-.125.924-.308.171-.184.256-.537.256-1.064V60.553c0-.244-.04-.405-.122-.483-.082-.078-.227-.117-.433-.117h-.566v-.581h3.596l1.74 4.814 1.649-4.814h3.53v.58h-.56c-.219 0-.367.038-.447.114-.08.074-.119.232-.119.475v5.706c0 .243.04.4.117.471.078.071.227.106.45.106h.558v.593h-4.155v-.593h.501c.225 0 .375-.037.453-.11.078-.071.117-.228.117-.467V60.22l-2.42 7.197h-.554l-2.574-7.154Zm11.651 4.123c.069 0 .141.005.218.012h.137c.43 0 .724-.07.88-.205.156-.135.234-.373.234-.709 0-.265-.069-.464-.206-.598-.138-.135-.344-.202-.615-.202h-.07c-.266 0-.427.028-.489.082-.06.053-.089.163-.089.326v1.294Zm0 .59v1.462c0 .16.03.267.09.325.06.06.231.088.514.088.391 0 .668-.075.828-.223.16-.149.24-.396.24-.74 0-.326-.088-.564-.26-.712-.172-.149-.45-.223-.834-.223-.117 0-.298.007-.545.022h-.033Zm1.116-2.862h.321c.522 0 .938.113 1.25.34.312.226.468.532.468.92 0 .368-.129.654-.389.864-.26.208-.65.34-1.17.394.571.039 1.02.181 1.347.425.327.241.49.557.49.945 0 .457-.202.808-.603 1.051-.403.243-.986.364-1.747.364H34.36v-.555l.522-.011c.148-.008.25-.041.302-.101.052-.06.079-.163.079-.312v-3.346c0-.148-.023-.25-.071-.304-.047-.054-.149-.085-.305-.093l-.527-.022v-.559h3.667Zm2.861 5.303v-.555l.522-.011c.148-.008.25-.041.303-.101.051-.06.077-.163.077-.312v-3.346c0-.148-.022-.25-.07-.304-.046-.054-.149-.085-.305-.093l-.527-.022v-.559h3.41v.559l-.408.022c-.155.008-.256.04-.304.095-.046.057-.07.158-.07.302v2.275l1.92-2.095v-.18c0-.148-.025-.25-.073-.308-.05-.055-.153-.085-.308-.089l-.403-.022v-.559h3.422v.559l-.528.022c-.156.008-.258.04-.304.093-.047.054-.07.156-.07.304v3.346c0 .153.025.257.075.316.05.057.153.089.305.097l.522.01v.556h-3.422v-.555l.397-.011c.156-.008.26-.041.31-.101.052-.06.076-.163.076-.312v-2.34l-1.92 2.062v.197c0 .198.025.328.07.391.05.062.151.095.311.103l.403.01v.556h-3.411Zm9.48-2.54v-.66h.277c.299 0 .523-.072.676-.218.152-.147.228-.364.228-.65a.74.74 0 0 0-.232-.556.803.803 0 0 0-.58-.222c-.357 0-.653.106-.883.317-.23.212-.408.543-.535.988h-.468l.136-1.85h.358l.142.31c.287-.138.556-.237.81-.298.255-.063.523-.093.807-.093.663 0 1.191.128 1.585.386.392.256.589.596.589 1.018 0 .366-.126.65-.383.854-.256.202-.651.338-1.188.406v.023c.54.018.967.148 1.283.388.316.241.474.559.474.95 0 .504-.229.9-.69 1.19-.458.292-1.093.437-1.904.437-.752 0-1.337-.141-1.755-.42-.42-.278-.63-.666-.63-1.164 0-.293.075-.526.222-.693.146-.168.347-.254.601-.254.203 0 .368.061.492.18a.61.61 0 0 1 .188.457c0 .258-.095.436-.282.533-.19.098-.285.183-.285.256 0 .13.099.243.292.338.195.093.438.141.731.141.396 0 .698-.093.907-.275.208-.184.311-.449.311-.796 0-.305-.096-.552-.29-.741a1.036 1.036 0 0 0-.747-.282h-.257Zm3.766-.099c0-.833.284-1.515.854-2.042.568-.527 1.303-.791 2.202-.791.896 0 1.63.266 2.204.797.572.53.86 1.21.86 2.036 0 .83-.287 1.508-.858 2.032-.57.525-1.306.787-2.206.787-.91 0-1.647-.262-2.211-.784-.563-.521-.845-1.2-.845-2.035Zm1.93 0c0 .747.09 1.294.266 1.64.178.347.46.52.849.52.395 0 .683-.17.863-.514.178-.342.27-.892.27-1.646 0-.757-.092-1.309-.27-1.656-.18-.347-.464-.52-.852-.52-.392 0-.678.173-.856.52-.18.347-.27.899-.27 1.656Zm7.272 3.977c0 .153.027.258.081.322.056.061.152.09.295.09h.624v.567h-3.583v-.544l.462-.022c.156-.01.258-.045.306-.103.05-.059.075-.161.075-.31v-5.651c0-.175-.038-.29-.11-.346-.072-.057-.235-.085-.488-.085h-.35v-.55l2.623-.118v.913c.217-.312.479-.542.783-.69.304-.15.66-.223 1.066-.223.68 0 1.245.255 1.7.77.456.512.684 1.164.684 1.955 0 .822-.247 1.508-.738 2.055-.491.548-1.097.823-1.814.823-.322 0-.612-.058-.868-.169a2.44 2.44 0 0 1-.748-.544v1.86Zm-.044-3.965c0 .662.106 1.175.316 1.533.21.359.509.539.897.539.353 0 .62-.175.806-.522.186-.35.277-.85.277-1.508 0-.674-.091-1.18-.271-1.519-.182-.34-.452-.508-.812-.508-.399 0-.7.167-.904.505-.206.337-.309.83-.309 1.48Z" fill="#fff"/></svg>