<svg width="32" height="32" viewBox="0 0 32 32" fill="none" xmlns="http://www.w3.org/2000/svg"><circle opacity=".2" cx="16" cy="16" r="16" fill="#fff"/><g clip-path="url(#a)"><path d="M15.706 8c-2.312 0-4.194 1.852-4.194 4.13 0 2.276 1.882 4.128 4.194 4.128 2.313 0 4.193-1.851 4.193-4.128C19.9 9.851 18.02 8 15.706 8Zm0 2.42c.957 0 1.736.767 1.736 1.71 0 .942-.779 1.708-1.736 1.708s-1.736-.766-1.736-1.708c0-.943.779-1.71 1.736-1.71Zm-3.457 5.978a1.232 1.232 0 0 0-1.06.567 1.2 1.2 0 0 0 .385 1.669c.758.468 1.581.8 2.434.992l-2.343 2.309a1.197 1.197 0 0 0 0 1.711c.24.236.555.354.869.354.314 0 .629-.118.869-.355l2.302-2.268 2.305 2.268c.48.473 1.257.473 1.737 0 .48-.472.48-1.238 0-1.71l-2.345-2.308a7.925 7.925 0 0 0 2.435-.993 1.2 1.2 0 0 0 .386-1.669 1.24 1.24 0 0 0-1.695-.38 5.395 5.395 0 0 1-5.645 0 1.237 1.237 0 0 0-.634-.187Z" fill="#fff"/></g><defs><clipPath id="a"><path fill="#fff" transform="translate(11 8)" d="M0 0h9.412v16H0z"/></clipPath></defs></svg>