<svg width="32" height="32" viewBox="0 0 32 32" fill="none" xmlns="http://www.w3.org/2000/svg"><circle opacity=".2" cx="16" cy="16" r="16" fill="#fff"/><g clip-path="url(#a)"><path fill-rule="evenodd" clip-rule="evenodd" d="M21.185 10.953a1 1 0 0 1 1.374 1.084l-1.512 9.172c-.146.884-1.117 1.392-1.928.951a38.932 38.932 0 0 1-2.594-1.53c-.453-.296-1.842-1.246-1.671-1.922.147-.578 2.48-2.75 3.813-4.041.524-.508.285-.8-.333-.334-1.535 1.159-3.999 2.921-4.813 3.417-.72.437-1.094.512-1.542.437a10.217 10.217 0 0 1-2.194-.603c-.836-.347-.795-1.496 0-1.83l11.4-4.8Z" fill="#fff"/></g><defs><clipPath id="a"><path fill="#fff" transform="translate(8 8)" d="M0 0h16v16H0z"/></clipPath></defs></svg>