<svg width="32" height="32" viewBox="0 0 32 32" fill="none" xmlns="http://www.w3.org/2000/svg"><circle opacity=".2" cx="16" cy="16" r="16" fill="#fff"/><path d="M23.92 21.317h-1.902c-.719 0-.936-.582-2.225-1.872-1.126-1.086-1.602-1.22-1.887-1.22-.394 0-.502.107-.502.65v1.71c0 .462-.15.733-1.358.733a7.417 7.417 0 0 1-5.796-3.475 15.15 15.15 0 0 1-3-6.298c0-.285.108-.543.652-.543h1.9c.488 0 .664.217.856.72.922 2.715 2.496 5.076 3.135 5.076.245 0 .352-.108.352-.719v-2.796c-.08-1.276-.758-1.384-.758-1.845a.47.47 0 0 1 .487-.436h2.987c.408 0 .543.203.543.691v3.775c0 .408.175.543.299.543.245 0 .433-.135.882-.583a15.633 15.633 0 0 0 2.335-3.884.818.818 0 0 1 .827-.542h1.901c.57 0 .691.285.57.692a23.72 23.72 0 0 1-2.551 4.385c-.205.313-.287.475 0 .842.188.285.855.841 1.302 1.37a8.461 8.461 0 0 1 1.602 2.226c.163.53-.11.8-.652.8Z" fill="#fff"/></svg>