<svg width="32" height="32" viewBox="0 0 32 32" fill="none" xmlns="http://www.w3.org/2000/svg"><circle opacity=".2" cx="16" cy="16" r="16" fill="#fff"/><path d="M16 9.333a6.666 6.666 0 1 1-3.353 12.43l-3.31.904.901-3.312a6.667 6.667 0 0 1 5.763-10.021Zm-2.271 3.534-.134.005a.642.642 0 0 0-.248.067.86.86 0 0 0-.196.152c-.08.075-.125.14-.174.204a1.82 1.82 0 0 0-.377 1.118c.001.327.087.645.22.942.273.602.721 1.238 1.313 1.828.143.142.283.285.434.418a6.299 6.299 0 0 0 2.56 1.364l.378.058c.124.006.247-.003.371-.01.194-.01.384-.062.555-.153.088-.045.173-.094.256-.147 0 0 .028-.018.083-.06.09-.066.145-.114.22-.192a.768.768 0 0 0 .14-.201c.052-.109.104-.316.125-.489.016-.132.012-.204.01-.248-.003-.072-.062-.146-.127-.177l-.388-.174s-.58-.253-.935-.414a.33.33 0 0 0-.117-.027.321.321 0 0 0-.252.084c-.003-.001-.048.037-.53.62a.233.233 0 0 1-.245.088.968.968 0 0 1-.128-.044l-.168-.072a4.02 4.02 0 0 1-1.05-.67c-.084-.072-.162-.152-.242-.23a4.203 4.203 0 0 1-.68-.845l-.039-.063a.614.614 0 0 1-.068-.137c-.025-.098.04-.177.04-.177s.163-.177.238-.273a2.86 2.86 0 0 0 .175-.249c.079-.126.104-.256.062-.357-.186-.456-.38-.91-.578-1.36-.04-.09-.156-.154-.262-.167a3.035 3.035 0 0 0-.108-.01 2.23 2.23 0 0 0-.269.002l.134-.005Z" fill="#fff"/></svg>