<svg width="24" height="24" viewBox="0 0 24 24" fill="none" xmlns="http://www.w3.org/2000/svg"><g opacity=".5" clip-path="url(#a)" fill="#fff"><path d="M21.09 22H3.91a1.9 1.9 0 0 1-1.35-.564A1.935 1.935 0 0 1 2 20.074V6.589c0-.51.201-1 .56-1.362a1.9 1.9 0 0 1 1.35-.564h6.046v.963H3.91a.95.95 0 0 0-.675.282.968.968 0 0 0-.28.681v13.485c0 .255.101.5.28.68a.95.95 0 0 0 .675.283h17.182a.95.95 0 0 0 .675-.282.968.968 0 0 0 .28-.681V8.997c0-.255-.101-.5-.28-.68a.95.95 0 0 0-.675-.283H4.386v-.963h16.705a1.9 1.9 0 0 1 1.35.564c.358.361.559.851.559 1.362v11.077c0 .51-.201 1-.56 1.362a1.9 1.9 0 0 1-1.35.564Z"/><path d="M21.09 7.553h-.954v-.964c0-.255-.1-.5-.28-.68a.95.95 0 0 0-.674-.283H15.76v-.963h3.422a1.9 1.9 0 0 1 1.35.564c.358.362.559.852.559 1.362v.964ZM22.523 17.666h-6.205c-.76 0-1.488-.305-2.025-.847a2.903 2.903 0 0 1-.838-2.043c0-.766.301-1.501.838-2.043a2.85 2.85 0 0 1 2.025-.846h6.205v.963h-6.205a1.9 1.9 0 0 0-1.35.564 1.935 1.935 0 0 0 0 2.724 1.9 1.9 0 0 0 1.35.564h6.205v.964Z"/><path d="M16.795 14.295h-.954v.963h.954v-.963ZM6.004 7.972l-.472-.838L14.462 2l3.116 5.307-.82.491-2.64-4.493-8.114 4.667Z"/></g><defs><clipPath id="a"><path fill="#fff" transform="translate(2 2)" d="M0 0h21v20H0z"/></clipPath></defs></svg>