<svg width="24" height="24" viewBox="0 0 24 24" fill="none" xmlns="http://www.w3.org/2000/svg"><g clip-path="url(#a)" fill="#fff" opacity=".5"><path d="M22 23H2V1h20v22ZM3.111 21.9H20.89V2.1H3.11v19.8Z"/><path d="M8.667 12H5.334v1.1h3.333V12ZM18.667 12h-3.334v1.1h3.334V12ZM8.667 15.3H5.334v1.1h3.333v-1.1ZM13.667 12h-3.333v1.1h3.333V12ZM13.667 15.3h-3.333v1.1h3.333v-1.1ZM18.667 15.3h-3.334v1.1h3.334v-1.1ZM8.667 18.6H5.334v1.1h3.333v-1.1ZM13.667 18.6h-3.333v1.1h3.333v-1.1ZM18.667 18.6h-3.334v1.1h3.334v-1.1ZM18.667 9.25H5.333V4.3h13.334v4.95ZM6.445 8.15h11.11V5.4H6.446v2.75Z"/></g><defs><clipPath id="a"><path fill="#fff" transform="translate(2 1)" d="M0 0h20v22H0z"/></clipPath></defs></svg>